<svg version="1" xmlns="http://www.w3.org/2000/svg" width="2560" height="2560" viewBox="0 0 1920.000000 1920.000000"><path d="M0 960v960h1920V0H0v960zm496.2-535.5c.5 1.1 1.6 3.3 2.5 5 1.7 3.1 2 4.3 2.8 13.8.3 3.2 1.4 9.3 2.4 13.5 1.7 6.9 2.8 11.6 6.3 27.7.6 2.7 1.9 7.3 2.9 10 .9 2.8 2.3 8 2.9 11.5 1.1 5.9 4.6 17.4 8.2 27.1.7 2 2.6 5.2 4.1 7.2 1.5 2 2.7 4 2.7 4.5 0 1 17.6 19.7 18.7 19.8.4 0 1.9.5 3.3 1.1 1.4.6 5.4 2.3 9 3.7 3.6 1.5 7.6 3.3 9 4 5.2 2.7 16.5 5.7 23.9 6.2 4.2.3 7.9.8 8.2 1 .6.3 16.3.4 35.9.2 10.9-.1 38.2-3.9 48.1-6.8 3.5-1 4.8-1.2 13.9-2.5 2.5-.3 8.1-1.5 12.5-2.6s9.1-2.3 10.5-2.5c19.3-4.1 26.9-5.9 34-8.1 4.7-1.5 9.3-2.6 10.2-2.5 1 0 2-.3 2.3-.9.4-.5 1.7-.9 2.9-.9 2.7 0 14.7-3.5 25.1-7.3 3.9-1.4 10.4-3.3 14.5-4.3 4.1-.9 12.2-2.9 18-4.4 22.3-5.9 39.6-7.2 49.7-3.8 10 3.4 17.9 7.8 23.8 13.2 3.3 3.1 6.5 5.6 7.2 5.6.7 0 1.6.6 2 1.3.4.7 3 3.1 5.7 5.5 5.8 5 9 5.4 15.4 1.7 2.3-1.3 7-3.1 10.5-4 3.4-.9 8-2.1 10.2-2.7 2.2-.6 14.3-1.2 27.5-1.3 21.3-.2 24.1-.4 30-2.4 3.6-1.2 9.2-2.9 12.5-3.7 11.9-3 28-9.7 35.7-14.8 2-1.3 3.2-1.5 4.4-.8 2.6 1.5 14.3-9.4 16.2-15 1.9-5.8 3.3-6.8 9-6.8 5.3 0 6.7 1 9.6 6.7l1.6 3.1-5 4.5c-2.8 2.5-5 4.9-5 5.5 0 .5-.7 1.5-1.5 2.2-.9.7-1.3 1.5-1.1 1.8.3.2-.2 1.8-1 3.4-.9 1.7-1.4 3.2-1.2 3.4.2.2 8.9.5 19.3.8 10.5.3 23.2 1.2 28.2 2.1 5.1.8 10.7 1.5 12.5 1.4 4.8-.1 31.3 2 38.3 3.1 3.3.5 9.8 1.2 14.5 1.5 4.7.3 11.9.7 16 1 4.1.3 10.7 1.1 14.5 2 3.9.8 10.8 1.5 15.5 1.5 7.6 0 19.1 1 30.5 2.6 2.2.3 7.2.7 11 .9 3.9.3 9.9.9 13.5 1.4 3.6.6 9.7 1.3 13.5 1.6 3.9.2 8.4.7 10 1 4.2.8 10.4 1.5 14.5 1.6 1.9.1 5.1.8 7.1 1.5 3.3 1.1 7.9 1.8 35.9 5.5 4.7.7 9.5 1.6 10.8 2 1.3.5 8.5 1.4 16 1.9s16.4 1.7 19.7 2.6c3.4.8 10 1.5 15.2 1.5 7.8 0 10-.4 15-2.6 3.2-1.5 7.7-4.5 10-6.6 2.4-2.1 4.7-3.9 5.3-3.9 2.1 0 22.2-22.7 25.2-28.5.8-1.7 3.4-6.5 5.7-10.9 2.6-5 4.1-9.2 4.1-11.5 0-2 1.3-7.7 2.9-12.6 1.6-5 3.1-10.6 3.5-12.5.3-1.9 1.3-4.8 2.1-6.4.8-1.5 1.5-3.9 1.5-5.2 0-3.2 5.8-16.9 8-18.9.9-.8 4.2-2.1 7.3-2.7 5.3-1.1 5.8-1.1 8 1.1 1.5 1.3 2.7 3.8 3 6.4.4 2.3 1.1 7.3 1.7 11.2 1.7 10.5 1.8 21.9.4 33-.9 6.2-1.1 14.8-.8 22.5.3 6.9.7 22.2.9 34 .2 11.8.4 25.3.5 30 .5 15.7-3.9 36.2-10.4 48.7-4 7.8-25.4 31-31.5 34.4-4.6 2.5-6.8 3.8-10.8 6.7-1.8 1.2-5.6 3-8.5 3.8-2.9.9-6.3 2-7.6 2.5-1.3.5-3.3.9-4.5.9-1.3 0-2.7.4-3.3 1-.9.9-11.7 3.6-18.3 4.6-1.9.3-4.2.9-5.1 1.4-3.2 1.7-20.2 4-31 4.1-6.4.1-13.9-.5-19.4-1.5-4.9-.9-12.5-1.9-17-2-4.4-.2-11-.9-14.6-1.5-3.6-.6-10.5-1.5-15.5-2.1-14.3-1.8-42.2-8.4-61.5-14.7-.8-.3-2.8-.6-4.5-.9-6-.7-28-5.7-32-7.1-2.2-.9-8.3-2.2-13.5-3-16.3-2.4-20.4-3.2-24.5-4.3-10-2.9-33.5-3.8-48-1.9-4.4.5-10.2 1.2-13 1.6-2.7.3-8.3 1.6-12.4 2.9-12.5 4.2-13.7 5.6-5.6 6.8 9.5 1.5 18 7.2 18.7 12.6.5 4.5-1.4 17-2.8 18.4-.7.8-1.1 1.6-.9 1.8.3.2-.4 3.6-1.4 7.4-3 10.8-4.7 25.8-4 34.4.3 3 .3 7.3-.2 22 0 1.4.2 5.6.5 9.5.2 3.8.5 7.9.5 9 .1 1.6.6 1.3 3.1-1.5 1.6-1.9 2.9-3.9 3-4.4 0-.5 1.3-2.2 3-3.7 5.2-5 8.8-3.5 11.5 4.9 2 6.1 2.1 14.4.5 29.7-.7 6-1.3 13-1.5 15.5-.1 2.5-.6 9.6-1 15.7-.8 12.3-.5 13 4.2 9.3 2.9-2.2 5.5-2.5 8.4-1 1.5.9 1.9 2.2 1.9 6.5 0 2.9-.4 5.7-1 6-.5.3-1 1.7-1 3.1 0 1.3-.4 2.4-1 2.4-.5 0-1 .6-1 1.2.1 2.4-7.4 16.8-8.7 16.8-1.4 0-4.3 5.1-4.3 7.5 0 1.4-3.6 12-7.4 22-2.4 6.1-7.3 14.1-10.7 17.5-.8.8-3.2 3.6-5.2 6.2-3.9 4.8-6.2 5.7-16.2 6.3-4.4.3-6 .8-12 3.5-2.2.9-6.7 1.8-10 1.9-7.8.2-8.7 1.3-8.3 11.1l.3 7.5 3.5-.3c1.9-.2 5.3-1.1 7.5-1.9 12.1-4.6 13.4-3.2 14 15 .4 12.8.3 13.8-1.6 14.7-1 .6-1.9 1.7-1.9 2.6 0 2.1-2.7 2.9-4.6 1.3-.8-.7-2.4-2.9-3.4-5-1.3-2.4-3-4.1-5.1-4.8-6.9-2.4-6.6-3.2-7 18.1-.6 38.9-.1 48.1 2.7 56.1 2.5 6.9 5.9 13 9.6 17.1 2.1 2.3 4.8 7.9 4.8 10 0 .8-.9 4-2 7-1.7 4.4-2.6 5.6-4.8 6.1-1.5.3-3.4 1.1-4.2 1.8-2.2 1.7-6 8.5-6 10.6 0 .9-.4 2.1-.9 2.7-.9.9-8.8 26.4-10.1 32.4-1.8 8.7-8.9 27.4-14.1 37.2-.5 1-.9 2.7-.9 3.7 0 1.1-.4 2.2-.9 2.5-.4.3-1.6 2.7-2.6 5.3-5 13.6-7.4 16.8-23.2 31l-3.5 3.3.1 14.5c0 7.9-.4 16.8-1 19.7-2.9 15.2-3.1 28.3-.7 56.3.6 6.6 1 12.7 1 13.5 0 .8.6 6 1.3 11.5.7 5.5 1.2 11.1 1.2 12.5.1 4.3 3.3 25.3 4.3 28.4.6 1.6 1 4 1 5.4 0 2.2 1.3 8.9 4.2 21.7.7 2.7 1.1 8.1 1 12-.2 7.4-2.9 19.5-4.3 19.5-.5 0-.9.5-.9 1.1 0 2.4-11.5 17.7-18.4 24.4-3.9 3.9-10.1 10.4-13.7 14.5l-6.7 7.4-7 .4-7 .4-1.2 7.7c-1.9 11.9-6.7 18-13 16.6-5.5-1.2-8.2-3.2-18-13.2-13.5-13.9-27.4-27.3-28.3-27.3-.4 0-6.1-5.4-12.7-11.9-14.9-14.8-16.2-17.4-16.5-31.6-.2-12.3 1-26 3.1-34 6.1-23.7 8.6-36.9 8.9-47.8.2-4.9.6-11 1-13.5.3-2.6.8-7.3 1-10.6.2-3.2.6-7 .9-8.5.3-1.4.8-6.7 1.1-11.6.6-11.3 1.3-20 2.1-24.6 1-6.3 1.8-24 1.8-39.9 0-13.5-.3-16.5-2.3-22.8-1.9-6-2.9-7.7-5.9-9.7-2-1.4-4.1-2.5-4.6-2.5s-3.1-2-5.7-4.5-5.2-4.5-5.7-4.5-3.3-4.8-6.3-10.7c-5.3-10.9-10.9-20.7-14.2-25.3-5.7-8-11.6-17.8-16.2-27.1-2.9-5.8-6.9-12.5-8.7-15-2.4-3-3.7-6.1-4.1-9.3-.4-2.7-1.6-6.4-2.8-8.2-4-6.5.4-16.6 9.3-21.6 4.1-2.3 4.3-2.6 4-6.3-.2-2.2-1.5-7.2-2.9-11-1.3-3.9-3.6-10.4-4.9-14.5-1.4-4.1-3.2-9.5-4.1-12-2.6-7.4-4.3-14.1-5.3-20.9-1-6.8-6.4-19.1-8.5-19.1-.7 0-1.8-.7-2.5-1.5-1.5-1.8-16.3-8.9-25-11.9-3.7-1.3-8.5-3.5-10.8-5-2.3-1.4-4.6-2.6-5.2-2.6-.5 0-1-.4-1-.8 0-.5-.9-2-2.1-3.3-1.1-1.3-2.8-3.4-3.9-4.5-1-1.2-2.1-3.2-2.5-4.5-.4-1.3-2-5.6-3.6-9.5-2.9-7.3-6.1-19.7-7.4-28.9-.8-5.9-3.7-18-6-25-1.3-3.9-1.7-8.8-1.6-22 0-15.1.3-18.1 2.6-26.9 4.6-16.9 7.1-21.2 12.5-20.8 2 .2 3.2-.5 4.6-2.5 1.6-2.4 1.9-4.7 1.8-14.8 0-11.3-.3-12.7-4.1-24-7.3-21.4-8.2-25-9.2-36.6-1.7-19.4-3.1-30.9-5.3-42.9-1.2-6.3-2.2-15.3-2.2-20-.1-7.4.3-9.2 2.8-14.3 1.5-3.2 5.1-8.6 7.8-11.9 4.7-5.6 5-6.1 3.7-8.5-2.3-4.4-9.6-9.9-16.1-12.3-5.5-2.1-8.5-2.4-24.3-2.7-17.5-.3-33.9 1-35.1 2.8-.3.5-1.5.9-2.6.9-1.2 0-3.5.4-5.2 1-1.7.5-7.8 1.7-13.6 2.6-5.8.9-12.7 2.1-15.5 2.6-2.7.5-6.6.9-8.5.9-2.3-.1-4.7.7-7 2.4-2 1.4-4.7 2.5-6.6 2.5-3.4 0-14.8 2.6-17.4 4-2.6 1.4-12.1 2.4-23.5 2.4-14 .1-41.6-2.9-45.6-4.9-1.6-.9-3.4-1.3-3.9-1-2.1 1.3-17-5-27.8-11.7-9.5-6-22.2-16.7-22.2-18.8 0-.4-1.4-2.2-3-4-1.7-1.9-4.5-6.4-6.2-10-1.7-3.6-3.5-7.3-4-8.4-3.2-6.4-13.8-62.1-14.4-75.9-.1-3.8-.7-7.4-1.2-8-.5-.7-.5-7.2 0-15.2.5-7.7.5-18.5.1-24-.3-5.5-.7-11.7-.8-13.7 0-2-.3-3.9-.6-4.2-.3-.3-.2-2.9.2-5.8s.8-9 .8-13.6c.1-12.8 7-30.3 13.4-34.2l3.1-1.9 2.9 2.7c1.6 1.5 3.3 3.6 3.9 4.7z"/><path d="M487.6 431.1c-2.2 3.1-6 15.5-5.1 16.8.3.6 0 3-.6 5.3-.7 2.4-1.2 4.6-1.1 5.1.3 1.2 1.5 31.7 1.5 37.7 0 3 0 10.2-.1 16-.2 11.8.4 23.7 1.4 29 .8 4.2.8 4.3 2.4 15.5.7 4.9 1.6 10 2.1 11.3.5 1.3.7 2.8.4 3.3-.4.5 0 3.5.8 6.6.8 3.2 2 8.7 2.7 12.3 1.1 6.5 3.4 14.7 5 18.5.5 1.1 1.6 4.2 2.5 6.9 2.2 6.9 3.1 8.3 9.4 15.6 8 9.2 10.8 11.5 17.9 15.1 3.5 1.8 6.6 3.8 6.9 4.5.3.7 1.9 1.7 3.6 2.2 1.8.6 5.9 1.8 9.2 2.7 3.3 1 6.9 2.4 8 3.1 1.1.8 3.2 1.4 4.7 1.4 1.4 0 3.9.5 5.5 1.1 2.9 1.1 29.4 2.4 43.8 2.1 4.4-.1 10.3-.6 13-1.2 12.5-2.8 18.4-4.4 24.5-6.6 8.6-3.1 15.2-4.5 22.7-4.9 3.4-.2 7-.8 8-1.3 1.7-.9 5.3-1.5 15.2-2.7 2.4-.3 4.7-.8 5.2-1 .4-.3 4.5-1.3 9.1-2.2 6-1.2 13.3-1.7 26.3-1.7 18.4 0 25.3.9 33 4.4 2.2.9 5.1 2.1 6.5 2.5 3.2 1 6 3.4 6 5.3 0 1.4 1.1 2.6 5.6 5.8 2 1.4 2.6 1.2 8-2.5 3.3-2.2 7.2-5.3 8.8-7.1 3.2-3.4 9.5-7 12.4-7 1.1 0 3.3.7 4.8 1.5 4.3 2.2 6.2 1.8 8.1-1.8 1.7-3.2 2.3-5.7 4.8-20.2 2-11 3.1-38 1.7-39.7-.6-.8-1.3-2.7-1.6-4.3-1.2-6.7-1.9-9.1-2.8-10.3-.6-.6-.8-1.2-.6-1.2.5 0-.1-3.6-1.7-10.8-.5-1.9.1-2.5 3.1-3.8 3.4-1.4 3.9-1.4 6.2.3 2.1 1.6 2.5 2.8 2.7 7.8.1 3.3.7 7.2 1.3 8.6 1.4 3.4 3.6 21.2 3.4 26.9-.7 17.2-1.5 26.3-2.8 31.3-.7 3.2-1.4 6.9-1.4 8.2 0 1.3-1.6 5.4-3.5 9.1-1.9 3.7-3.3 7-3 7.3.3.2 1.5.6 2.7.8 3.4.5 8.8 3.4 9.8 5.3 1.4 2.7 4.2 19.7 4.3 25.8v5.3l3.8-3.9c4-3.9 13.9-19.7 13.9-21.9 0-2.8 8.7-22.9 17.3-40.3 9.2-18.4 9.2-18.5 19.4-28.6 6.6-6.6 11.9-10.9 15-12.4 2.6-1.2 6.7-3 9.1-4.1 2.3-1 4.8-1.9 5.5-1.9.6 0 3.9-1.1 7.2-2.4 3.3-1.3 11.4-4.1 18-6.2 13-4 16.9-6.1 9.5-5-2.5.4-6.5.9-9 1.2-5.4.6-11 2.2-13 3.8-.8.7-6.1 2.5-11.7 4.1-12.3 3.4-14.1 3-21.1-5.3-2.6-2.9-6.3-6.6-8.3-8-2-1.5-6.9-5.2-11-8.2-7.3-5.5-13.9-8-24.9-9.3-4.1-.5-36.7 5.6-38.3 7.2-.6.6-2.6 1.1-4.3 1.1-6 0-28.6 6.3-31.8 8.9-1.1.8-9.2 3-19.1 5.1-2.7.5-8.6 2.1-13 3.4-11.7 3.6-45.7 11.6-48 11.4-1.1-.1-6 .8-11 1.9-13.6 3.2-23.2 5.2-30.9 6.3-3.8.6-7.3 1.3-7.8 1.6-.5.3-3.2.7-6.1.9-2.8.2-8.8.7-13.2 1-20.8 1.5-46 2.1-48.5 1.2-6.5-2.4-14.8-4.7-16.6-4.7-1.3 0-2.6-.5-2.9-1-.4-.6-1-.8-1.4-.5-1.1.6-18-6.2-20.9-8.6-1.4-1-2.9-1.9-3.5-1.9-.5 0-2.9-1-5.3-2.1-6.5-3.3-25.1-25-28-32.9-1.3-3.3-3-7.5-3.7-9.3-1.6-3.7-2.2-5.8-8.3-28.7-.9-3.6-2.3-8.8-3.1-11.5-2.2-7.4-6.4-25.6-6.9-29-.2-1.7-.8-5.5-1.3-8.5-.6-3-1.3-8.3-1.5-11.8-.3-3.4-1.2-7.4-1.9-8.9l-1.4-2.6-1.7 2.4zM1532.9 468.3c-1.3 1.9-8.3 20-9.5 24.7-.2.8-1.9 8.1-3.8 16.1-4 16.6-9.8 30.1-15.4 35.8-.7.8-3.7 4.4-6.6 8-2.9 3.6-7.5 8.8-10.3 11.4-5.5 5.3-21.3 17.7-22.6 17.7-.5 0-3.2 1.1-6 2.4-6.6 3.1-17.4 3.3-29 .7-4.5-1.1-12.7-2.2-18.2-2.5-5.5-.3-12-1-14.5-1.6-2.5-.5-9.2-1.4-15-1.9-5.8-.6-11.8-1.5-13.5-2-1.6-.5-6.8-1.4-11.5-2-4.7-.6-12.5-1.8-17.5-2.7-4.9-.9-10.3-1.6-12-1.6-1.6.1-4.1-.3-5.5-.8-1.4-.5-12.6-1.9-25-3.1-12.4-1.1-26.5-2.5-31.4-2.9-4.9-.5-13.2-1.1-18.5-1.4-5.3-.3-13.1-1.2-17.4-2-4.3-.9-10.9-1.6-14.5-1.6-3.7 0-10.1-.5-14.2-1.1-4.1-.5-10.2-1.2-13.5-1.6-3.3-.3-6.9-.6-8-.8-8.5-1-16.8-1.6-27.5-2-13.6-.5-17.1-.8-18.8-1.9-3.3-2-45.4-2.5-47.8-.5-1.1.9-1.3 3.5-.8 12.7.3 6.3.9 12.3 1.4 13.2.5 1 1.2 9.1 1.6 18.1.9 21.8 4 41.7 8.1 50.9 1.9 4.3 9 12.1 14.4 15.7 1.3.9 2.8 2.3 3.2 3 1 1.7 6.1 1.7 10-.1 6.9-3 14.4-5.6 17.7-6.1 1.9-.3 5.5-.9 8-1.5 17.6-3.6 43-4.8 55.1-2.6 4.2.7 8.1 1.6 8.7 2 .6.3 3.8.9 7.2 1.2 3.3.3 7.9 1.2 10.2 2 2.2.8 5.8 1.4 7.9 1.4 4 0 7.4.7 21.4 4.2 4.4 1.1 8.9 2.2 10 2.4 10.1 1.7 27 5.6 29.2 6.7 1.5.8 5.3 2 8.3 2.7 3 .7 7.6 1.9 10.1 2.7 2.6.7 5.1 1.3 5.5 1.2.5-.1 2 .1 3.4.4 17.6 4.4 23.3 5.3 48.5 7.7 12.7 1.2 25.9 3.1 27.6 4.1.9.4 8.1.6 16 .4 11.9-.4 15.9-.9 22.9-3.1 4.7-1.4 9.9-2.7 11.5-2.9 4.8-.4 21.7-4.3 25.5-5.9 1.9-.8 5-2 6.8-2.7 7.2-2.6 20-12.4 30.5-23.2 5.9-6.2 10.7-11.5 10.7-11.9 0-.5 1.1-2.5 2.4-4.6 1.3-2 4.1-8.7 6.1-14.7l3.7-11 .5-24.1c.4-17 .2-24.8-.6-26.3-.7-1.1-.8-2.1-.4-2.1 1 0 .8-14.7-.3-24-1-8.5-.6-24.8.8-33.1 1-6.1.7-19.7-.7-29.4-1.4-9.4-1.9-10-4.6-6.2zM1074.6 541.9c-.4.7-.5 1.5-.2 1.8.9.9 1.9-.4 1.4-1.8-.4-1.1-.6-1.1-1.2 0zM1052.7 547.1c-2.6 1.6-5.9 2.9-7.4 2.9-1.6 0-4.1.7-5.8 1.6-1.6.8-5.2 2-8 2.5-2.7.6-5.9 1.2-7 1.5-1.1.2-3.5.8-5.4 1.2-1.9.4-3.6 1.3-3.9 2-.5 1.6 8 5.2 14 5.9 5.6.7 13.3-2.6 19-8.1 1.9-1.8 4.4-3.7 5.6-4 1.8-.6 5.1-7.1 4-8.1-.2-.2-2.5.9-5.1 2.6zM1071.7 555.2c-3.7 2.8-1.9 23 3.5 40 2.1 6.8 3.7 8.8 3.6 4.5 0-3.5-2.7-29.5-3.8-37-.6-3.8-.8-7.2-.5-7.8.9-1.3-.8-1.1-2.8.3z"/><path d="M994 564.2c-5.9 2.6-8.8 3.7-13.5 4.8-2.7.7-7.7 2.2-11 3.5-3.3 1.2-8.6 2.8-11.8 3.6-3.2.7-6 1.6-6.3 2-.2.5-1.1.6-1.9.2-.8-.3-1.5 0-1.5.5 0 .6-1.5 1.5-3.2 2.1-20.2 6-38 18.3-45.2 31.2-7.3 12.9-18.6 34.8-18.6 36.1 0 .7-1.1 3.5-2.5 6.2s-2.5 5.5-2.5 6.1c0 .7-1.2 3.4-2.7 6.1-5.8 10.8-8.3 15.8-8.3 17 0 .7-.3 1.4-.7 1.6-.5.1-2.5 2.4-4.6 5-2.1 2.6-5.8 6.2-8.2 7.9-3.4 2.5-4.8 4.3-5.6 7.3-.6 2.3-2.1 7.2-3.4 11.1-3.3 10.3-3.9 19.1-2.1 32 3.3 24 1.4 46.7-4.3 51.9-1 .9-4.8 2.2-8.4 2.7-5.8.9-7 .8-10.6-1.1-2.3-1.1-4.1-2.3-4.1-2.6 0-.2 1.4-5.1 3.1-10.7 1.7-5.6 4.2-14.8 5.4-20.4 2.8-12 5.2-20 6.8-22.8 2.5-4.5 1.2-23.6-2-28.4-4-5.9-6.7-16.1-4.3-16.1.6 0 1-1.8 1-4s.4-5.9 1-8.2c.5-2.4 1.9-9.4 3.1-15.7 1.8-9.5 1.9-11.5.8-12.2-2-1.2-3.7-1.1-4.6.4-.9 1.5-10.7 9.7-11.5 9.7-.3 0-2.1 1.4-3.9 3.1-1.8 1.7-4.6 3.7-6.3 4.6-1.7.9-4.4 2.6-5.9 3.9-1.9 1.6-4.1 2.4-6.8 2.4-3.3 0-4.1-.4-4.9-2.5-.5-1.4-1.4-2.5-2-2.5-1.7 0-7.1 8.4-8.9 13.8-2 5.9-1.6 12 2.4 32.2 1.5 7.5 2.4 15.2 2.2 19.3-.1 3.7.1 6.8.5 7 .4.1.8 1.8.9 3.7.6 15.5 3.9 29.6 10 42.7 3.1 6.6 4.4 15.8 4.2 28.6-.2 8.3-.8 12.7-1.8 14.8-1.6 2.9-1.5 3.1 1.2 5.8 3.4 3.3 5.8 6.3 7.2 9 .6 1.1 3.5 4.9 6.4 8.3 2.8 3.4 6.6 8.1 8.2 10.4 5 7.1 8.7 12.1 14.8 20.1 3.1 4.1 5.7 8 5.7 8.5s1.1 2.4 2.5 4.2c1.4 1.8 2.5 3.8 2.5 4.4 0 .6.8 1.7 1.8 2.4.9.7 2.5 2.5 3.5 4 .9 1.5 3 3.4 4.7 4.3 1.6.8 4.5 3.6 6.4 6.3 2 2.6 4.4 5.6 5.5 6.7 2.7 2.9 4.3 6.4 3.7 8.1-.3.8-.1 2.3.6 3.3.8 1.4.6 5.6-1.1 17.7-1.2 8.7-2.2 16.9-2.2 18.1.1 1.3-.4 2.3-.9 2.3-.6 0-1 1.5-1 3.2 0 3.8-2.1 10.8-4.5 15.5-1.6 3.2-4.7 4.4-6 2.3-.5-.8-6.5-1-6.5-.2 0 .2.8 1.6 1.8 3 1.9 2.7 5.2 13.5 5 16.2-.1 2.2 1.9 9.2 6.4 22 2.2 6.3 4.5 13.3 5 15.5.6 2.2 1.5 4.9 2 6 .4 1.1 1 3 1.3 4.2.2 1.2.9 3.1 1.5 4.2s1.1 4.9 1.2 8.4c.3 7.9-1.3 10.6-7.9 13.9-8.2 4-8.2 9.5-.1 25.3 2.3 4.4 4.8 9.5 5.7 11.2.8 1.8 1.9 3.3 2.3 3.3.4 0 .8.7.8 1.5 0 1.8 2.3 6.9 4.7 10.6 1 1.5 3.7 5.7 6 9.5 2.2 3.8 6.1 9.6 8.5 12.9 2.4 3.3 4.9 7.1 5.6 8.5 8.3 16.2 11 19.9 19.8 26.7 3.8 2.8 4.6 3.1 5.1 1.7.7-2-.4-22.2-1.4-23.7-.9-1.4-1-1.9-2.4-13.2-.6-5-1.1-19.4-1-32.1.1-13.7-.3-25.1-.9-28-.9-4.1-.9-5 .4-6 .9-.6 1.6-1.6 1.6-2.3 0-.6.6-1.1 1.3-1.1 1.7.1 4.7 2.5 4.7 3.9 0 .6.4 1.1.8 1.1s.8 4.2.9 9.2c0 5.1.1 14.7.2 21.3.1 6.6-.2 13.4-.7 15.1-.6 1.7-.6 3.7-.1 4.5.4.7.8 4.4.8 8.1 0 3.7.4 7.5.9 8.5s1.3 5.8 1.7 10.8c.4 4.9.9 10.3 1.1 12 .5 3.8 1.3 11.4 1.9 18.5.2 3 1.1 8.9 2 13 2.9 14.3 4.5 23.5 4.9 27.5.8 7.3 1.8 12.5 2.6 12.5.4 0 1 1.9 1.4 4.2 1.4 9.7 5.3 28.4 6.7 32.3 1.1 3 2.2 14.9 2 21.5-.4 16.3-.3 37.8.3 44 .7 8.7 1.4 19.2 2.1 30.5.3 4.4 1.1 11.3 1.7 15.2 2.1 12.9 3.9 8 3.2-9.1-.2-6 .1-13 .7-15.5 1.2-5 1.3-5.9 2.4-17.4.4-4.2 1.3-9.6 2-11.9.8-2.8.9-5.6.3-8.7-.7-3.5-.4-39.3.3-42.1.1-.3.1-.8 0-1.3-1.2-7.9-1.8-43-.7-44.9.6-1.1.6-3.3-.2-7-.6-2.9-1.4-7.6-1.7-10.3-1.3-10.1-1.7-11.9-4.2-15.7-1.4-2.1-2.9-3.8-3.4-3.8-.8 0-.4 10.9.6 17.2.5 3.3-3.4 8.2-5.8 7.2-3.3-1.2-5.4-10.1-5.6-22.8-.1-5.5-.6-12.1-1.1-14.6-3.7-16.6-8.3-35.4-9.9-40.5-2.7-8.2-3.5-13-3.3-20.2.1-8.4 3.1-11.8 8.6-9.7 2 .8 8.2 11 9.1 14.9.4 1.6 1.1 3.9 1.6 5 4.1 9.2 13.2 36.3 12.7 38.2-.1.9.6 3.1 2.7 7.6 1.2 2.8 1.3 2.9 2.7.9 2-2.9 6.4-3.8 8.7-1.8 1.8 1.6 1.9 1.2 3.5-10.1.9-6.5 2.1-14.7 2.6-18.3.5-3.6 1.4-12.6 2-20 .6-7.4 1.3-15.1 1.5-17 1.1-8.3 1.6-11.8 2.5-16 .5-2.5 1.1-6.8 1.4-9.5.3-2.8 1-6.6 1.5-8.5 1-3.4 3.7-19.6 4.6-27.1.2-1.9.9-5.5 1.4-8 .5-2.4 1-7.8 1.1-11.9.1-4.1.6-10 1.1-13 1.3-8.2 1.8-13.5 2.9-36.5.5-12.3 1.6-23.2 2.4-26.3 1.5-5.2 1.4-6.6-.7-11-1.3-2.8-2.8-2.8-6.5.3-1.7 1.4-3.3 2.5-3.7 2.5-.5 0-2.3 1.1-4.1 2.5-1.8 1.4-3.7 2.5-4.2 2.5-3.2 0-21 16.7-28.6 26.8-1.2 1.5-2.9 3.7-3.9 4.7-1 1.1-3.4 4-5.3 6.5s-4.2 5.3-4.9 6.2c-.8 1-2.3 3.5-3.5 5.7-2 4-6.2 7.1-9.6 7.1-1 0-2.7.8-3.8 1.9-2.7 2.4-12.4 5.2-15.6 4.4-5.7-1.4-11.8-10-13.9-19.5-.7-3.1-2.2-6.9-3.3-8.4-2.3-2.8-13-8.4-16.3-8.4-2.7 0-8.9-2.2-10.9-3.9-2.2-1.8-2-5.8.3-7.1 2.9-1.5 6.2-1.2 10.7.9 2.1 1 5.5 2.2 7.4 2.6 1.9.4 4.5 1.3 5.7 2.1 1.2.8 3.1 1.4 4.2 1.4s3.7 1 5.8 2.2c5.5 3.1 11.1 5.8 12.1 5.8.5 0 2 1.2 3.3 2.7 3.2 3.7 8.2 6.2 13.6 7 4.3.6 4.3.5 4.3-2.5 0-1.7.4-4.2 1-5.7 1.4-3.8 1.6-23.9.2-33-.6-4.4-1-13.4-.8-20 .4-13.9 1.6-17 7.9-21.4 5.7-3.9 7.2-5.8 8.7-11.3 1.6-6 1.1-8.5-5.5-28.4-3-8.9-6.1-19.1-6.9-22.7-.8-3.5-2.7-9.1-4.1-12.3-1.4-3.3-3.1-7-3.7-8.4-2.2-5.2-4.2-8.7-8.4-14.3-2.3-3.1-5.8-8.7-7.6-12.3-5.8-11.5-7.1-13.8-15.5-26.2-4.6-6.7-8.3-12.8-8.3-13.6 0-2.2 2.3-3.5 5.8-3.2 3.4.2 5.5 2.1 12.2 10.6 1.9 2.5 3.7 4.7 4.1 5 1 .8 9.9 14.7 9.9 15.4 0 .4 1.3 1.8 2.9 3.2 1.7 1.4 3.3 3.5 3.7 4.7 1.2 4 4.7 11.2 7.5 15.2 1.4 2.2 4.5 7.9 6.8 12.7 2.3 4.9 4.6 8.8 5.1 8.8.6 0 1 .6 1 1.4 0 1.5 5.5 12.2 7.1 14 .5.6.9 1.6.9 2.4 0 .8 1.1 2.5 2.5 3.8 1.4 1.3 2.5 3 2.5 4 0 1.2.5 1.4 1.8.8.9-.4 3.1-.8 4.8-1 4-.2 13.8 5.8 17.7 11 1.6 2 4.8 5.8 7.2 8.4 2.3 2.6 5.3 6 6.7 7.6l2.4 2.9 3.1-4.9c3.1-4.9 8.9-16.7 11.3-23.4.7-1.9 1.9-4.2 2.5-5 .7-.8 2.9-5.7 5.1-10.9 4.4-10.5 5.9-11.7 13.4-10.6 8.2 1.3 8.2 1.3 9.7-3 .8-2.2 1.6-9.4 1.9-16 .3-6.6.9-17.3 1.4-23.8.5-6.6.7-20.5.5-31-.7-30.9 0-135.2.9-143.2.3-2.2.8-14.8 1.1-28 .3-14.2 1.1-27.3 2-32 1.7-9.5 3.5-22.7 3.5-26.2v-2.5l-3.2 2.1c-6.2 3.9-15.3 7.9-19.8 8.6-3.4.4-6 .1-10.5-1.6-3.3-1.2-8.2-2.9-11-3.9-2.7-1-6.3-2.5-8-3.4-3.5-1.8-5-1.9-8.5-.4zM1062.1 582c-1.6 3.7-3.1 22.1-3.5 43.7-.3 12.3-.8 22.8-1.2 23.4-.4.6-.8 25.7-1.1 55.8-.2 30-.4 56.6-.5 59.1-.1 2.5.2 8.1.6 12.5.8 9.1.8 13.9.1 35.5-.3 8.5-.8 21.6-1 29-.3 7.4-.7 14.5-1 15.6-.4 1.8 0 2.1 2 2.1 2.8 0 5.5 1.9 5.5 3.8 0 .6 1.5 2.9 3.3 4.9l3.2 3.8 9.2-8.9c5.1-4.8 11.8-11.3 15-14.3 3.2-3.1 8.1-8.2 10.8-11.5 2.8-3.3 11.5-12.5 19.5-20.5l14.6-14.5-.8-4.5c-.8-4.3-.3-63.9.6-69 .2-1.4.7-4.5 1-7 .4-2.5 1.5-7 2.5-10 3.7-11 4.8-17.9 3.5-21.5-.6-1.4-6.5-5.1-8.9-5.4-5.5-.9-12.5-3.5-16.6-6.3-2.6-1.7-4.4-1.8-13.6-.2-6.9 1.1-10.1-.9-17.6-10.7-3-3.9-3.7-7.3-6.3-27.4-1.4-11.3-1.8-12.7-7.4-24.1-3.3-6.6-6-12.7-6-13.6 0-.8-.7-2.3-1.5-3.4-.8-1-1.5-3.7-1.5-6 0-2.2-.4-4.4-.9-5-.5-.5-1.1-2-1.4-3.4-.2-1.4-.5-2.3-.6-2z"/><path d="M808.9 654.8c-1.5.9-5.7 4.7-9.5 8.4-3.7 3.8-7.2 6.8-7.6 6.8-.4 0-.8.3-.8.7 0 .5 1.6.8 3.5.8 2.5 0 4.8-1.1 8.5-4 2.7-2.2 5-4.5 5-5.2 0-.7.6-1.3 1.3-1.3.7 0 2.6-1.4 4.2-3 2.5-2.6 2.7-3.2 1.5-4-2.1-1.4-3.1-1.2-6.1.8zM1095 661.5c0 1.8 1.9 4 2.6 3.2.4-.4 0-1.5-.9-2.4-.9-1-1.7-1.3-1.7-.8zM1099.2 666.2c.3.7 1.3 1.5 2.4 1.7 1.6.3 1.7.1.5-1.3-1.6-1.9-3.4-2.1-2.9-.4zM833 692.1c0 .5.5.7 1 .4.6-.3 1-.8 1-1.1 0-.2-.4-.4-1-.4-.5 0-1 .5-1 1.1zM833.2 700.2c-1 3.3-1 5.1-.1 7.5 1.3 4 2.2 4.1 3.7.8 1.7-3.7 1.4-7.6-.6-10.3l-1.7-2.3-1.3 4.3zM831.6 763c-1 4.1-2.2 7.9-2.6 8.5-.4.5-.7 1.7-.8 2.5 0 2.6-1.1 7.5-2.7 12-2.9 8.4-1 12.2 4.3 8.3 3.6-2.7 4.8-10.4 4.2-26.3l-.5-12.5-1.9 7.5zM1154.2 795.3c-1.8 2.9-4.1 6.3-5.2 7.7-1.8 2.3-1.9 3.3-1 12.5.5 5.5.8 15.8.5 23-.3 7.1-.4 16.1-.3 20 .1 3.8.2 8.9.2 11.2 0 2.4.3 4.3.6 4.3 1.7 0 5.4-6.8 5.1-9.5-.1-1.7.2-5.1.8-7.5.6-2.5 1.3-9.9 1.6-16.5.3-6.5 1.3-17.3 2.2-23.9.8-6.7 1.6-14.1 1.8-16.6.2-4.4-1.1-10-2.3-10-.4 0-2.2 2.4-4 5.3zM1134.9 815.7c-2 1.6-5.1 4.5-7 6.6-4.5 4.9-5.6 6-7.1 7.3-.7.6-4.4 4.6-8.3 8.9-9.6 10.8-19 20.5-19.8 20.5-.9 0-15.6 15-17.4 17.8-1.3 1.8-1.3 2.5-.3 3.7.7.9 1.6 3.2 2.1 5.3 2.4 11.2 5.3 21.9 6.4 23 1 1.1 8.3 2.9 19.2 4.6 1.1.2 3 .7 4.1 1 1.4.5 3.6-.8 8.3-5 8-7 18.3-17.3 22.1-22.1l2.9-3.7-.2-31.8c-.1-17.6-.5-33.5-.8-35.5l-.6-3.5-3.6 2.9zM785.6 856.6c-.4 1.6-1 8.7-1.2 15.8-.3 7.1-.6 13.2-.8 13.5-.2.3.2 4.4 1 9.1.8 4.7 1.6 9.7 1.8 11.2.3 1.5 1.1 5.1 2 8 .8 2.9 1.8 8 2.1 11.3 1 8.6 5.7 26.3 7.9 29.8.8 1.2 1.8 3.9 2.1 5.9.4 2.1 1.1 3.8 1.6 3.8s.9.8.9 1.7c0 1 .7 2.6 1.4 3.6 1.9 2.5 15.4 10.7 17.5 10.7 1 0 2.6.9 3.7 2.1 1 1.2 3.5 3 5.4 4 5.8 3.2 10.5 6.1 11 6.8.3.4 2.1 1.4 4 2.3 3.6 1.8 6.4.9 5.4-1.7-.3-.7-.1-2.2.5-3.3 1.4-2.7 3.7-14.8 5.1-27.7 1.4-12.9.2-18.9-4.6-24.2-1.6-1.7-3.4-3.7-4-4.4-.7-.8-3.6-3.6-6.5-6.3-2.9-2.7-7.6-8.6-10.4-13.2-6.4-10.5-14.4-22-18.4-26.2-1.7-1.8-3.1-3.8-3.1-4.4 0-1-2-3.8-7.4-10.3-1.4-1.7-4.5-5.7-7-9s-5.6-7.3-6.9-8.9l-2.4-3-.7 3z"/><path d="M773.5 869.7c-.3 1.6-1 4.8-1.6 7.3-1.3 5.9-1.4 23.2-.1 25.6.5 1.1 1.2 3.9 1.6 6.4.4 2.4 1.1 4.9 1.7 5.6.5.7 1.3 4.4 1.6 8.3.3 3.9.9 7.1 1.3 7.1s1.3 3.5 2 7.7c1.5 9.3 4.8 21 6.7 23.8.7 1.1 1.3 2.8 1.3 3.9 0 4.1 9.7 16.6 13 16.6.9 0 2 .4 2.6.9 1.2 1.1 11.1 5.4 10 4.4-.4-.4-4.4-3.3-8.9-6.4-5.8-3.9-8.8-6.8-10.3-9.6-4.1-7.7-11.1-30.6-12.4-40.2-.7-5.2-1.8-11.3-2.6-13.4-.8-2.2-1.2-4.2-1-4.5.3-.2 0-1.5-.5-2.9-1.4-3.8-3-20.4-3-32.6-.1-10.8-.4-12.9-1.4-8zM1165.3 869.7c-1.7 1.9-2.3 3.9-2.3 7.2 0 5.2 1.4 4.6 3.7-1.6 3.2-8.5 2.7-10.4-1.4-5.6zM1051.6 877.5c-2.7 3.6-4.6 6.9-4.2 7.2.3.3 2.9-.6 5.7-2 2.8-1.5 5.7-2.7 6.4-2.7.8 0 1.6-.4 2-.9.6-1.1-2.6-7.3-4.1-7.8-.5-.2-3.2 2.6-5.8 6.2zM1032.2 877.3c-.5.7-2.1 3.8-3.6 6.9-1.4 3.1-3.1 6-3.6 6.3-1.6 1-1.2 4.5.5 4.5 1.5 0 8.5-6.3 8.5-7.6 0-.4 1.2-2.2 2.6-4.1 1.4-1.9 2.4-3.5 2.3-3.7-4.5-3-5.8-3.4-6.7-2.3zM1150.8 884.6c-1.9 2.7-3 6.1-3.7 10.9-.6 3.8-.8 7.1-.6 7.3.8.8 6.5-9.2 7.1-12.3.3-1.7.4-4.6.2-6.5l-.3-3.4-2.7 4zM944.5 889.5c.3 1.1 2.2 6.8 4.2 12.8 1.9 5.9 3.9 10.9 4.3 11.2.4.3 1.1-1.5 1.4-3.9.6-3.8.2-5.2-2.9-10.7-4-7.3-8.1-12.8-7-9.4zM1045.9 894.3c-1.4.7-3.2 1.7-4 2.3-.8.6-2.5 1.4-3.9 1.7-1.7.4-3.2 1.9-4.3 4.2-1.7 3.6-1.7 3.8.7 8.3 3.1 6.1 7.6 20.6 7.9 25.7.1 2.2.8 4.5 1.5 5 .7.6 1.5 2.6 1.8 4.5.9 5.6 6.5 19.2 9.6 23.2 1.5 2 2.8 4.2 2.8 4.8 0 .6 1.4 2.4 3.1 4.1 2.8 2.7 3.6 3 7.3 2.4 8.8-1.3 14.6-2.9 14.8-3.9 0-.6.2-5.8.2-11.6.1-8.4.5-11.2 1.9-13.3 1.7-2.7 1.7-2.9-.4-6.7-1.3-2.2-2.6-4-3-4-1.4 0-5.8-7.9-7.2-13.1-3.3-11.9-6.2-17.1-12.7-22.5-7-5.9-8.9-8.2-9-10.7 0-2-3.1-2.2-7.1-.4zM1135.2 900.2c-.7.7-1.2 1.7-1.2 2.2 0 .6-2.6 3.4-5.7 6.3-3.2 2.8-5.5 5.4-5.1 5.8.3.3 3.2.1 6.3-.7 6.4-1.5 7-2.3 7.4-10.1.2-5.1.1-5.3-1.7-3.5zM966 904c0 .6 1.2 2.9 2.8 5.2 1.5 2.2 3.2 5 3.9 6.2.7 1.2 2.5 3.4 4 5.1 2.6 2.8 6.3 8.1 8.9 12.9.6 1.1 2.3 2.9 3.7 4 3.2 2.4 4.5 1.5 5.3-3.6.5-2.9.2-4-1.5-5.4-5.4-4.7-10.1-9.6-10.1-10.4 0-.5-1.1-1.7-2.5-2.8-1.4-1.1-2.5-2.4-2.5-2.9 0-1.1-9.8-9.3-11.1-9.3-.5 0-.9.5-.9 1zM1013.6 915.9c-1.6 3.6-3.8 7.5-4.8 8.7-3 3.4-2 4 1.3.8 3.2-3 7.9-11.2 7.9-13.8 0-3.5-1.7-1.9-4.4 4.3zM962.6 916.7c-1.6 1.6-4.6 9.7-4.6 12.4 0 3.1 4.8 18.1 8.5 26.4 2.7 6.1 7.1 11.5 9.4 11.5 2.4 0 5.5-3.6 8-9.2s2.5-5.8.6-5.8c-.9 0-2.2-1.5-2.9-3.3-6.3-14.8-10-22.4-11.5-23.7-.9-.8-2.8-3.2-4.2-5.2-1.4-2.1-2.9-3.5-3.3-3.1zM1084.5 921c.7 5.2 3.5 10 5.9 10 2.6 0 10.9-6.7 10.3-8.3-.2-.6-3-1.6-6.3-2.2-3.2-.6-6.9-1.5-8.1-1.9-2-.6-2.1-.4-1.8 2.4zM1139.9 922.9c-2.4 2.7-4.8 5.5-5.4 6.3-.5.8-1.9 2.5-3 3.8-1.4 1.8-1.5 2.1-.3 1.1.9-.7 2.1-1 2.7-.7.9.6 1.9-.3 4.6-3.6 1.8-2.2 6.6-11.1 6.2-11.5-.2-.2-2.4 1.9-4.8 4.6zM1118.8 922.8c-7.7.3-7.8.3-11 4.2-1.7 2.2-3.6 4-4.2 4-.6 0-3.3 2.1-6 4.7-6.3 6-5.6 7.6 3.5 7.9 3.5.1 7.3-.3 8.4-.9 4.7-2.4 19.2-19.1 17.3-20-.1-.1-3.8-.1-8 .1z"/><path d="M1019.5 930c-.3 1-2.7 3.8-5.3 6-2.6 2.3-6 5.9-7.7 8.2-1.6 2.2-4.8 5-7 6.2-3.3 1.9-4.8 3.8-8.2 10.7-5.5 10.9-5.5 11.7.4 8.4 7.5-4.2 12.4-2.2 16.9 6.7 2.1 4.2 2.3 5.3 1.4 9.4-1.9 8.2-3.1 21.6-3.3 36.5-.1 9.9-.6 15.1-1.4 16.1-.7.8-1.1 1.7-.8 1.9.7.8.8 7.1.1 12.4-.3 2.7-1.2 11.1-2.1 18.5-1.4 13.7-1.7 15.6-3.4 24.5-.5 2.7-2.1 11.7-3.5 20-1.4 8.2-3 16.5-3.6 18.4-.5 1.9-.8 3.7-.6 4 .3.4.1 2.7-.4 5.1-.5 2.5-1.1 7.5-1.4 11-.3 3.6-.8 9.9-1.1 14.1-.4 4.1-.8 8.9-1.1 10.5-.2 1.6-.7 4.9-.9 7.4-.3 2.5-1 6.6-1.5 9.3-.6 2.6-1.2 10-1.5 16.5-.4 6.4-1 13.9-1.5 16.7-1.8 10.4-1.3 17.2 1.8 23.9 1.6 3.3 3.2 6.9 3.6 7.9.8 2.5 2.8 1.7 4.5-1.9.8-1.6 1.8-3.7 2.4-4.8 2.7-5.5 5.8-15.8 9.2-30.1 3.8-16.3 8.2-31.6 14.1-48.8 3.1-8.9 5.9-18.1 6.4-20.4.5-2.4 1.6-5.6 2.4-7.1.8-1.6 2-5.1 2.7-7.8.6-2.7 1.7-6 2.4-7.4.7-1.4 2.3-4.7 3.6-7.3 3.4-6.8 5-8.1 8.2-6.6 4.3 2 5.9 13.3 3.6 25.5-.7 3.2-1.2 6.7-1.1 7.8.1 1-.5 2.8-1.3 4-.7 1.1-1.6 3.8-1.9 5.9-.4 2.1-1 4.6-1.5 5.5-1.4 2.8-2.4 19.4-2.5 40.4-.1 10.9 0 19.8.2 19.8s2.5-2.1 5.3-4.6c6.1-5.8 9.9-12.3 13.9-23.9 1.7-5 4.4-11.5 5.9-14.5 1.6-3 3.4-7.5 4.1-10 2.5-9.7 6.2-21.7 8.1-26 1-2.5 2.3-6.5 2.9-9 .5-2.5 1.9-7.4 2.9-10.9 1.1-3.6 1.8-6.7 1.6-6.9-.2-.3.4-1.7 1.3-3.1 1-1.4 2.7-4.3 3.7-6.4 1.9-3.7 7.3-8.7 9.3-8.7 1.6 0 3.8-4.3 3.4-6.8-.2-1.2-.8-2.2-1.3-2.2s-.9-.6-.9-1.3c0-.7-2-3.6-4.4-6.5-2.4-2.8-4.7-6.6-5.1-8.4-.4-1.8-1.1-3.8-1.5-4.3-2.6-3.4-3.4-14.2-3.3-44.8.1-17.9-.2-31.7-.7-31.7-3 0-7.2 3.1-15.6 11.2-5.3 5.1-10.8 9.9-12.2 10.7-1.5.8-3.8 2.2-5.1 3.2-3.2 2.5-6.3 2.4-8.1-.4-2-3-2.2-4.3-2.4-19.2-.1-10.5-.5-14.2-2.3-19-4.5-12.7-6.3-19.7-6.3-25 0-8.7-3.5-22.5-7.2-28.5-1.6-2.6-4.5-2.6-5.3 0zM950.7 945.4c-.3.8-3.1 3.3-6.1 5.6-3.4 2.4-5.6 4.8-5.6 6 0 1-.5 2.2-1 2.5-1.2.7-.5 22.1 1 31 2 12.2 2.2 20.2.5 23.4-.8 1.7-1.2 3.1-.7 3.1 1 0 3.3-2.6 13.9-15.8 8.6-10.9 11.1-13.1 21.1-19.7 3.3-2.1 5.9-4.2 5.6-4.6-.2-.3-1.8-.9-3.6-1.3-6.4-1.3-11.4-5.2-14.7-11.5-1.7-3.3-3.1-6.7-3.1-7.5 0-.8-.7-2.7-1.5-4.3-.9-1.5-2-4-2.5-5.6-1-2.9-2.5-3.5-3.3-1.3z"/><path d="M1041.4 965.6c.9 5.2 3.4 13.5 4.4 14.7.6.7 1.1 2.5 1.3 4.2.2 1.6.7 3.5 1.2 4.2.5.7.8 6.2.8 12.2-.1 6 .3 11.2.7 11.5 1.2.7 8.2-4.7 11.1-8.6 1.3-1.8 4.8-5.1 7.8-7.3 2.9-2.2 6.3-4.8 7.4-5.7 1.2-.9 2.6-1.9 3.2-2.1.7-.2.9-.7.5-1.1-.3-.4-4 .2-8 1.3-4.1 1.2-8.5 2.1-9.7 2.1-2.6 0-10.1-5.5-10.1-7.4 0-.7-1.3-2.5-2.9-4-2-1.9-3.5-5-4.7-9.2-1.7-6.6-4-10-3-4.8zM1104.5 979.2c-1.6.6-5 1.9-7.5 3l-4.4 2 6.6 2.2c3.7 1.2 7 2.5 7.4 2.9.4.4 1.1.7 1.6.7 1 0 1.1-10.7.1-11.3-.5-.2-2.1 0-3.8.5zM901 1028.4c0 1.9.5 4.7 1 6.2 1.2 3 5.4 7.4 7.2 7.4 1.8 0 15.8-5.4 15.8-6.1 0-.4-2.2-.9-4.9-1.3-3.4-.4-6.9-2-11.6-5.1-3.7-2.5-6.8-4.5-7.1-4.5-.2 0-.4 1.5-.4 3.4zM1036.2 1143.2c-.7 2.4-2 6.8-2.8 9.8-.8 3-1.9 6.4-2.3 7.5-3.2 7.5-5 12.5-5.7 16-.3 2.2-1.5 5.8-2.5 8s-3.2 9.2-4.9 15.5c-1.7 6.3-4.4 16.4-6.1 22.5-1.6 6-3.6 13.7-4.3 17-.7 3.3-1.9 7.3-2.6 9-3.3 7.9-4.5 10.4-7.1 15.5-2.3 4.5-3.3 5.5-5.4 5.5-3.1 0-5.6 2.9-4.7 5.3.3 1 2.1 3.2 3.9 5.1l3.3 3.4-.5 8.3c-.3 4.6-.9 10.4-1.4 12.8-.9 5-.8 7.1.7 10.7 1 2.6 1.8 6.3 2.7 12.4.8 6.5 1.8 11 2.5 12 .5.5 1.1 3.7 1.5 7 .5 3.3 1.4 7.4 2.2 9.3.7 1.8 1.4 5.3 1.5 7.7.1 5.8 2.3 7.9 3.9 3.9.6-1.6 1.6-3.7 2.1-4.8 1.6-3.1 3.8-10.9 3.8-13.7 0-1.4.3-2.9.7-3.3.4-.4 1.3-2.8 2-5.4 3.7-13.3 6.1-23.2 6.7-27.5.9-6.1 2-31.7 1.6-38.2-.5-8.4-.1-16.6 1.1-24 .6-3.9 1.2-7.9 1.3-9 0-1.1.4-2.5.8-3.1 1.1-1.7 1.7-17.1.9-23.9-.4-3.3-.4-7.6 0-9.5.4-1.9.9-8.7 1.2-15 .6-11.8 2.4-22.4 5.7-33.3 2.1-7.3 3.5-17.7 2.3-17.7-.5 0-1.4 1.9-2.1 4.2zM934.5 1166.6c.4 1.6 1.1 4.7 1.6 6.9.4 2.2 1.3 5.8 1.9 8 .6 2.2 2 8 3 12.8 1.5 6.8 5.5 21.2 6.4 22.4.1.1 1.3.4 2.8.8l2.7.7-1.5-5.9c-.8-3.2-1.9-7.6-2.4-9.8-1.2-5.2-3.5-11.7-6.5-18.2-1.4-2.8-2.5-5.9-2.5-6.7 0-.8-.4-1.7-.9-2-.5-.3-1.4-2.8-2.1-5.6-.7-2.8-1.7-5.3-2.2-5.7-.7-.4-.8.4-.3 2.3zM965.8 1228.2c-.4 4.8.9 16.9 2.1 18.1 3.2 3.2 4.3-8.4 1.5-16.6-1.9-5.5-3.1-6-3.6-1.5zM973.2 1258.1c-1.6 2.5-1.1 3.2 2.5 3.7 2 .2 2.4 0 1.9-1.3-.3-.9-.6-2.3-.6-3.1 0-2.1-2.3-1.7-3.8.7zM968.3 1273.2c-.9 2.3-.9 6.6.1 25.8.3 5.2.5 10.3.5 11.3.1 1 .5 1.6 1 1.3.5-.4 1.2-4.1 1.6-8.4.3-4.2.8-8.8 1-10.2.2-1.4.4-4.2.4-6.2.1-2.9.8-4.4 3.1-6.5 2.4-2.1 3-3.4 2.8-5.8-.3-2.8-.6-3-4.9-3.3-3.9-.3-4.7 0-5.6 2zM929.6 1278.9c-1.4 2.1-1.9 9.8-1.4 19.6.1 2.2-.2 7.4-.6 11.5-.5 4.1-1 11.5-1.1 16.5-.2 4.9-.8 11.2-1.3 13.9-.6 2.7-.8 5.5-.6 6.1.3.7-.2 5.4-1 10.4-.8 5.1-1.2 9.9-1 10.6.3.7 0 2.4-.6 3.6-.7 1.2-1.2 4.3-1.2 6.7.1 2.5-.3 6.6-.9 9.1-1.4 6.2-2 9.3-2 11.3 0 1-.4 2-1 2.3-.5.4-.9 1.8-.9 3.2 0 1.4-.7 4.6-1.4 7.2-.8 2.5-1.9 7.5-2.4 11.1-1 7-.6 28.7.6 32 .7 1.9 13.9 16.9 17.6 19.9 4.3 3.5 27.7 25.4 36.9 34.4 5.4 5.4 10.1 9.7 10.5 9.7.4 0 1.5-2.8 2.5-6.3 2.1-8 1.1-15.7-3.4-26.2-3.7-8.7-3.7-9-3.5-33.7.2-13.3-.1-26.2-.6-28.6-.7-3.5-1.1-35.9-.8-69.7 0-5.8-.7-15.9-1.5-20-.2-1.1-.4-3.1-.4-4.4-.1-1.3-.4-2.1-.8-1.8-.3.4-.7 11-.8 23.5-.1 12.6-.6 23.5-1.1 24.3-1.7 2.7-3.5 24.6-3.4 42.3 0 6.8-.4 11.4-1.1 12.2-.7.8-1.3 2.2-1.4 3.2-.4 3.7-1.8 8.3-2.6 8.8-.5.3-.9 1.3-.9 2.3 0 1-1 4.9-2.2 8.7-2.5 8-7 13.4-9.6 11.7-2.3-1.4-3.6-7.1-2.1-9 1.6-1.9 1.7-28.5.1-40.7-1.1-8.3-3-28.5-3.6-38.6-.2-2.5-.7-9.9-1.1-16.5-.5-6.6-.7-12.5-.5-13 1.3-4.4 1.5-16.7.4-26.5-2-17.3-2.3-18.5-3.9-23.2-.8-2.4-1.5-5.2-1.6-6.3-.1-3.8-3.5-12.9-4.3-11.6zM976.7 1303.6c-1 1.1.2 2.4 1.7 1.8 1-.4 1.2.8 1 5.1-.2 3.1-.6 6.4-.9 7.4-.3 1.1-.1 5 .5 8.7.6 3.8 1.2 14.7 1.2 24.1.1 9.5.4 17.3.8 17.3 1.4 0 3.5-20.5 3.3-32-.2-13-1.3-28-2.2-30.3-1-2.5-3.8-3.6-5.4-2.1zM969.1 1324.6c0 1.1.3 1.4.6.6.3-.7.2-1.6-.1-1.9-.3-.4-.6.2-.5 1.3z"/><path d="M1026 1339.9c0 .7-.8 2.5-1.9 3.9-1 1.5-2.4 5.8-3.1 9.7-.7 3.8-2.8 11.3-4.8 16.5-1.9 5.2-3.8 11.7-4.2 14.5-3 19.2-9.2 29.8-13.9 24.1-1.5-1.8-1.6-5-.2-18.4 1.1-9.8 1-12.3-.4-19-1-4.2-1.8-8.4-2-9.2-.3-1.9-1.5-7.1-2.1-9-1.4-4.1-2 3-2.3 23.7-.1 12.5-.5 23.1-.7 23.5-.3.4-.7 3.4-1 6.6-.2 3.1-.7 7.3-1 9.2-.3 1.9-.7 5.3-.9 7.5-.1 2.3-.7 5-1.2 6-2.4 4.8-2.2 31.9.5 46.3 3.9 21.5 8.5 24 21 11 3.7-3.8 10.5-10.9 15.1-15.6 9-9.4 14.1-16.1 14.1-18.7 0-.9.8-3 1.7-4.8 1.1-2.2 1.7-5.8 1.7-11.2.1-7.9-.2-10.5-2.4-21.5-.6-3-1.3-7.5-1.6-10-.2-2.5-.6-5.4-.9-6.5-1.8-8.4-5.5-36.3-6.4-48.2-.4-5.1-1.2-9.8-1.9-10.5-.9-.9-1.2-.9-1.2.1zM980.7 1369.6c-.4.4-.7 1.4-.7 2.3 0 1.1.3 1.2 1.1.4.6-.6 1-1.6.7-2.3-.2-.6-.7-.8-1.1-.4zM980.4 1375.8c.3.6.2 2.2-.3 3.5-.6 1.6-.6 3.8-.1 5.6.5 1.9.5 3.3-.1 3.7-.5.3-.6 1-.3 1.6.8 1.3.7 14.2-.1 16.8-.4 1.1-.2 2 .3 2 2.7 0 3.5-32.1.9-33.7-.6-.3-.7-.1-.3.5z"/></svg>